<svg width="24" height="24" viewBox="0 0 24 24" fill="none" xmlns="http://www.w3.org/2000/svg">
<path d="M10.928 21.0001C10.5339 21.0011 10.1436 20.9239 9.77948 20.773C9.41541 20.6221 9.08489 20.4005 8.80704 20.1211L1.68604 13.0001L8.80704 5.87906C9.94004 4.74506 11.916 4.74506 13.049 5.87906C13.615 6.44306 13.928 7.19606 13.928 7.99806C13.928 8.74406 13.658 9.44906 13.164 10.0001H18C19.654 10.0001 21 11.3461 21 13.0001C21 14.6541 19.654 16.0001 18 16.0001H13.164C13.657 16.5491 13.928 17.2521 13.928 17.9981C13.9294 18.3927 13.8525 18.7836 13.7016 19.1482C13.5507 19.5128 13.3289 19.8439 13.049 20.1221C12.7711 20.4014 12.4405 20.6228 12.0765 20.7735C11.7124 20.9242 11.3221 21.0012 10.928 21.0001ZM4.51404 13.0001L10.221 18.7071C10.4114 18.8891 10.6646 18.9907 10.928 18.9907C11.1914 18.9907 11.4447 18.8891 11.635 18.7071C11.824 18.5181 11.928 18.2661 11.928 17.9991C11.928 17.7321 11.824 17.4821 11.637 17.2941L8.34204 14.0001H18C18.2575 13.9885 18.5006 13.8782 18.6788 13.6919C18.8569 13.5056 18.9563 13.2578 18.9563 13.0001C18.9563 12.7423 18.8569 12.4945 18.6788 12.3082C18.5006 12.122 18.2575 12.0116 18 12.0001H8.34204L11.635 8.70706C11.7283 8.61456 11.8023 8.50454 11.8528 8.38332C11.9033 8.26211 11.9294 8.1321 11.9295 8.00077C11.9296 7.86945 11.9037 7.7394 11.8533 7.61811C11.803 7.49683 11.7291 7.3867 11.636 7.29406C11.4457 7.1116 11.1924 7.00965 10.9287 7.00946C10.6651 7.00928 10.4116 7.11087 10.221 7.29306L4.51404 13.0001Z" fill="white"/>
</svg>
