<svg width="35" height="36" viewBox="0 0 35 36" fill="none" xmlns="http://www.w3.org/2000/svg">
<path fill-rule="evenodd" clip-rule="evenodd" d="M11.6667 10.7083C11.6667 9.16124 12.2812 7.67751 13.3752 6.58354C14.4692 5.48958 15.9529 4.875 17.5 4.875C19.0471 4.875 20.5308 5.48958 21.6248 6.58354C22.7188 7.67751 23.3333 9.16124 23.3333 10.7083C23.3333 12.2554 22.7188 13.7392 21.6248 14.8331C20.5308 15.9271 19.0471 16.5417 17.5 16.5417C15.9529 16.5417 14.4692 15.9271 13.3752 14.8331C12.2812 13.7392 11.6667 12.2554 11.6667 10.7083ZM11.6667 19.4583C9.7328 19.4583 7.87813 20.2266 6.51068 21.594C5.14323 22.9615 4.375 24.8161 4.375 26.75C4.375 27.9103 4.83594 29.0231 5.65641 29.8436C6.47688 30.6641 7.58968 31.125 8.75 31.125H26.25C27.4103 31.125 28.5231 30.6641 29.3436 29.8436C30.1641 29.0231 30.625 27.9103 30.625 26.75C30.625 24.8161 29.8568 22.9615 28.4893 21.594C27.1219 20.2266 25.2672 19.4583 23.3333 19.4583H11.6667Z" fill="white"/>
</svg>
